<svg width="79" height="65" viewBox="0 0 79 65" fill="none" xmlns="http://www.w3.org/2000/svg">
<path d="M0 0.959994C0.576 1.088 1.632 1.184 3.168 1.248C4.704 1.312 6.464 1.376 8.448 1.44C10.432 1.44 12.384 1.44 14.304 1.44H35.616V3.456C34.272 6.72 32.64 10.08 30.72 13.536C28.864 16.992 27.008 20.704 25.152 24.672C23.36 28.576 21.856 32.832 20.64 37.44C19.488 41.984 18.944 47.008 19.008 52.512C19.008 53.536 19.04 54.496 19.104 55.392C19.168 56.288 19.232 57.12 19.296 57.888C19.36 58.656 19.392 59.392 19.392 60.096C19.392 61.504 18.976 62.656 18.144 63.552C17.312 64.512 16.224 64.992 14.88 64.992C13.408 64.992 12.32 64.448 11.616 63.36C10.912 62.272 10.56 61.024 10.56 59.616C10.56 55.264 11.104 51.072 12.192 47.04C13.344 43.008 14.816 39.104 16.608 35.328C18.4 31.488 20.352 27.776 22.464 24.192C24.64 20.544 26.752 17.024 28.8 13.632C30.912 10.176 32.8 6.784 34.464 3.456L31.776 9.504H8.448C5.824 9.504 4.16 9.856 3.456 10.56C2.752 11.264 2.272 12.544 2.016 14.4H0.384C0.384 11.008 0.352 8.288 0.288 6.24C0.224 4.192 0.128 2.432 0 0.959994ZM59.832 0C64.248 0 67.736 1.056 70.296 3.168C72.92 5.216 74.232 8.192 74.232 12.096C74.232 14.656 73.624 17.088 72.408 19.392C71.256 21.632 69.72 23.808 67.8 25.92C65.88 27.968 63.832 29.984 61.656 31.968C59.48 33.888 57.368 35.808 55.32 37.728C53.272 39.584 51.544 41.472 50.136 43.392H69.624C72.248 43.392 73.912 43.04 74.616 42.336C75.32 41.568 75.8 40.288 76.056 38.496H77.688C77.688 41.888 77.72 44.512 77.784 46.368C77.848 48.16 77.944 49.792 78.072 51.264C77.496 51.136 76.44 51.04 74.904 50.976C73.368 50.912 71.608 50.848 69.624 50.784C67.64 50.784 65.688 50.784 63.768 50.784H41.304V49.152C43.224 47.04 45.528 44.8 48.216 42.432C50.904 40 53.496 37.376 55.992 34.56C58.552 31.68 60.664 28.576 62.328 25.248C64.056 21.856 64.92 18.176 64.92 14.208C64.92 10.56 64.056 7.936 62.328 6.336C60.664 4.672 58.328 3.84 55.32 3.84C52.76 3.84 50.392 4.608 48.216 6.144C46.04 7.616 44.12 9.856 42.456 12.864L40.92 12C41.88 9.952 43.16 8.032 44.76 6.24C46.424 4.384 48.472 2.88 50.904 1.728C53.4 0.576 56.376 0 59.832 0Z" fill="#E3006D"/>
</svg>
