<svg width="1672" height="2581" viewBox="0 0 1672 2581" fill="none" xmlns="http://www.w3.org/2000/svg">
    <g clip-path="url(#clip0_0_1)">
        <path d="M486.796 1637.11L60.0002 1637.11L60.0002 1619.08L486.796 1619.08L486.796 1637.11Z" fill="#E3006D"/>
        <path d="M486.796 1598.04L60.0002 1598.04L60.0002 1580L486.796 1580L486.796 1598.04Z" fill="#FFA7CD"/>
        <path d="M486.796 1676.19L60.0002 1676.19L60.0002 1658.16L486.796 1658.16L486.796 1676.19Z" fill="#FFA7CD"/>
    </g>
    <g clip-path="url(#clip1_0_1)">
        <path d="M623.699 1301.46C680.77 1304.34 724.704 1352.93 721.831 1410L683.08 1408.05C684.876 1372.38 657.417 1342.01 621.748 1340.21L623.699 1301.46Z" fill="#00A3FF"/>
    </g>
    <g clip-path="url(#clip2_0_1)">
        <path d="M553.133 1355.73C610.275 1355.73 656.599 1402.06 656.599 1459.2H617.799C617.799 1423.48 588.847 1394.53 553.133 1394.53V1355.73Z" fill="#9BDBFF"/>
    </g>
    <g clip-path="url(#clip3_0_1)">
        <path d="M482 1407.47C539.143 1407.47 585.466 1453.79 585.466 1510.93H546.666C546.666 1475.22 517.714 1446.27 482 1446.27V1407.47Z" fill="#00A3FF"/>
    </g>
    <g clip-path="url(#clip4_0_1)">
        <path d="M1162.62 1645.88C1162.62 1661.41 1150.03 1674 1134.5 1674C1118.97 1674 1106.38 1661.41 1106.38 1645.88C1106.38 1630.34 1118.97 1617.75 1134.5 1617.75C1150.03 1617.75 1162.62 1630.34 1162.62 1645.88Z" fill="#FFA7CD"/>
        <path d="M1162.62 1561.5C1162.62 1577.03 1150.03 1589.63 1134.5 1589.63C1118.97 1589.63 1106.38 1577.03 1106.38 1561.5C1106.38 1545.97 1118.97 1533.38 1134.5 1533.38C1150.03 1533.38 1162.62 1545.97 1162.62 1561.5Z" fill="black"/>
        <path d="M1162.62 1477.13C1162.62 1492.66 1150.03 1505.25 1134.5 1505.25C1118.97 1505.25 1106.38 1492.66 1106.38 1477.13C1106.38 1461.59 1118.97 1449 1134.5 1449C1150.03 1449 1162.62 1461.59 1162.62 1477.13Z" fill="#FFA7CD"/>
    </g>
    <path d="M1413.66 95.3825C1469.24 95.3825 1514.3 140.62 1514.3 196.423L1313.03 196.423C1313.03 140.62 1358.08 95.3825 1413.66 95.3825Z" fill="#E3006D"/>
    <path d="M312.637 635C368.217 635 413.273 680.237 413.273 736.041L212 736.041C212 680.237 257.057 635 312.637 635Z" fill="#E3006D"/>
    <path d="M312.637 637.041C257.057 637.041 212 591.803 212 536L413.273 536C413.273 591.803 368.217 637.041 312.637 637.041Z" fill="#E3006D"/>
    <path d="M1535.63 2479C1591.21 2479 1636.27 2524.24 1636.27 2580.04L1435 2580.04C1435 2524.24 1480.05 2479 1535.63 2479Z" fill="#E3006D"/>
    <path d="M1535.63 2481.04C1480.05 2481.04 1435 2435.8 1435 2380L1636.27 2380C1636.27 2435.8 1591.21 2481.04 1535.63 2481.04Z" fill="#E3006D"/>
    <path d="M1413.66 101.041C1358.08 101.041 1313.03 55.8033 1313.03 -1.16854e-06L1514.3 7.62939e-06C1514.3 55.8033 1469.24 101.041 1413.66 101.041Z" fill="#E3006D"/>
    <g clip-path="url(#clip5_0_1)">
        <path d="M1484.39 599.778C1541.54 599.778 1587.86 646.101 1587.86 703.244H1549.06C1549.06 667.53 1520.11 638.578 1484.39 638.578V599.778Z" fill="#00A3FF"/>
    </g>
    <g clip-path="url(#clip6_0_1)">
        <path d="M1416.49 651.511C1473.64 651.511 1519.96 697.834 1519.96 754.977H1481.16C1481.16 719.263 1452.21 690.311 1416.49 690.311V651.511Z" fill="#D3EFFF"/>
    </g>
    <g clip-path="url(#clip7_0_1)">
        <path d="M1345.36 703.244C1402.5 703.244 1448.83 749.567 1448.83 806.709H1410.03C1410.03 770.995 1381.07 742.043 1345.36 742.043V703.244Z" fill="#00A3FF"/>
    </g>
    <path d="M987.279 767.102H1142.48L1064.88 715.369L987.279 767.102Z" fill="#E3006D"/>
    <g clip-path="url(#clip8_0_1)">
        <path d="M1627.47 815.323L1200.67 815.323L1200.67 797.287L1627.47 797.287L1627.47 815.323Z" fill="#E3006D"/>
        <path d="M1627.47 776.246L1200.67 776.246L1200.67 758.21L1627.47 758.21L1627.47 776.246Z" fill="#FFA7CD"/>
        <path d="M1627.47 854.401L1200.67 854.401L1200.67 836.365L1627.47 836.365L1627.47 854.401Z" fill="#FFA7CD"/>
    </g>
    <g clip-path="url(#clip9_0_1)">
        <path d="M790.796 2536.11L364 2536.11L364 2518.08L790.796 2518.08L790.796 2536.11Z" fill="#E3006D"/>
        <path d="M790.796 2497.04L364 2497.04L364 2479L790.796 2479L790.796 2497.04Z" fill="#9BDBFF"/>
        <path d="M790.796 2575.19L364 2575.19L364 2557.16L790.796 2557.16L790.796 2575.19Z" fill="#9BDBFF"/>
    </g>
    <g clip-path="url(#clip10_0_1)">
        <path d="M359 479L106 479L106 461L359 461L359 479Z" fill="#E3006D"/>
        <path d="M359 440L106 440L106 422L359 422L359 440Z" fill="#FFA7CD"/>
        <path d="M359 518L106 518L106 500L359 500L359 518Z" fill="#FFA7CD"/>
    </g>
    <g clip-path="url(#clip11_0_1)">
        <path d="M757.715 741.235L757.715 689.502L767.415 689.502L767.415 741.235L757.715 741.235Z" fill="black"/>
        <path d="M778.731 741.235L778.731 689.502L788.431 689.502L788.431 741.235L778.731 741.235Z" fill="black"/>
        <path d="M736.698 741.235L736.698 689.502L746.398 689.502L746.398 741.235L736.698 741.235Z" fill="black"/>
    </g>
    <g clip-path="url(#clip12_0_1)">
        <path d="M705.982 792.968L705.982 741.235L715.682 741.235L715.682 792.968L705.982 792.968Z" fill="black"/>
        <path d="M726.998 792.968L726.998 741.235L736.698 741.235L736.698 792.968L726.998 792.968Z" fill="black"/>
        <path d="M684.965 792.968L684.965 741.235L694.665 741.235L694.665 792.968L684.965 792.968Z" fill="black"/>
    </g>
    <g clip-path="url(#clip13_0_1)">
        <path d="M748.015 826.109L748.015 792.968L757.715 792.968L757.715 826.109L748.015 826.109Z" fill="black"/>
        <path d="M769.031 826.109L769.031 792.968L778.731 792.968L778.731 826.109L769.031 826.109Z" fill="black"/>
        <path d="M726.998 826.109L726.998 792.968L736.698 792.968L736.698 826.109L726.998 826.109Z" fill="black"/>
    </g>
    <g clip-path="url(#clip14_0_1)">
        <path d="M654.249 741.235L654.249 689.502L663.949 689.502L663.949 741.235L654.249 741.235Z" fill="black"/>
        <path d="M675.266 741.235L675.266 689.502L684.966 689.502L684.966 741.235L675.266 741.235Z" fill="black"/>
        <path d="M633.232 741.235L633.232 689.502L642.932 689.502L642.932 741.235L633.232 741.235Z" fill="black"/>
    </g>
    <g clip-path="url(#clip15_0_1)">
        <path d="M554.017 741.235L554.017 689.502L563.717 689.502L563.717 741.235L554.017 741.235Z" fill="black"/>
        <path d="M575.033 741.235L575.033 689.502L584.733 689.502L584.733 741.235L575.033 741.235Z" fill="black"/>
        <path d="M533 741.235L533 689.502L542.7 689.502L542.7 741.235L533 741.235Z" fill="black"/>
    </g>
    <g clip-path="url(#clip16_0_1)">
        <path d="M554.017 741.235L554.017 689.502L563.717 689.502L563.717 741.235L554.017 741.235Z" fill="black"/>
        <path d="M575.033 741.235L575.033 689.502L584.733 689.502L584.733 741.235L575.033 741.235Z" fill="black"/>
        <path d="M533 741.235L533 689.502L542.7 689.502L542.7 741.235L533 741.235Z" fill="black"/>
    </g>
    <g clip-path="url(#clip17_0_1)">
        <path d="M736.698 720.219L684.965 720.219L684.965 710.519L736.698 710.519L736.698 720.219Z" fill="black"/>
        <path d="M736.698 699.202L684.965 699.202L684.965 689.502L736.698 689.502L736.698 699.202Z" fill="black"/>
        <path d="M736.698 741.235L684.965 741.235L684.965 731.535L736.698 731.535L736.698 741.235Z" fill="black"/>
    </g>
    <g clip-path="url(#clip18_0_1)">
        <path d="M788.431 771.951L736.698 771.951L736.698 762.252L788.431 762.252L788.431 771.951Z" fill="black"/>
        <path d="M788.431 750.935L736.698 750.935L736.698 741.235L788.431 741.235L788.431 750.935Z" fill="black"/>
        <path d="M788.431 792.968L736.698 792.968L736.698 783.268L788.431 783.268L788.431 792.968Z" fill="black"/>
    </g>
    <g clip-path="url(#clip19_0_1)">
        <path d="M633.232 720.219L581.5 720.219L581.5 710.519L633.232 710.519L633.232 720.219Z" fill="black"/>
        <path d="M633.232 699.202L581.5 699.202L581.5 689.502L633.232 689.502L633.232 699.202Z" fill="black"/>
        <path d="M633.232 741.235L581.5 741.235L581.5 731.535L633.232 731.535L633.232 741.235Z" fill="black"/>
    </g>
    <g clip-path="url(#clip20_0_1)">
        <path d="M584.733 769.526L533 769.526L533 759.827L584.733 759.827L584.733 769.526Z" fill="black"/>
        <path d="M584.733 748.51L533 748.51L533 738.81L584.733 738.81L584.733 748.51Z" fill="black"/>
        <path d="M584.733 790.543L533 790.543L533 780.843L584.733 780.843L584.733 790.543Z" fill="black"/>
    </g>
    <g clip-path="url(#clip21_0_1)">
        <path d="M757.715 741.235L757.715 689.502L767.415 689.502L767.415 741.235L757.715 741.235Z" fill="black"/>
        <path d="M778.731 741.235L778.731 689.502L788.431 689.502L788.431 741.235L778.731 741.235Z" fill="black"/>
        <path d="M736.698 741.235L736.698 689.502L746.398 689.502L746.398 741.235L736.698 741.235Z" fill="black"/>
    </g>
    <g clip-path="url(#clip22_0_1)">
        <path d="M1385.78 256.239L1385.78 204.507L1395.48 204.507L1395.48 256.239L1385.78 256.239Z" fill="black"/>
        <path d="M1406.79 256.239L1406.79 204.507L1416.49 204.507L1416.49 256.239L1406.79 256.239Z" fill="black"/>
        <path d="M1364.76 256.239L1364.76 204.507L1374.46 204.507L1374.46 256.239L1364.76 256.239Z" fill="black"/>
    </g>
    <g clip-path="url(#clip23_0_1)">
        <path d="M1437.51 307.972L1437.51 256.239L1447.21 256.239L1447.21 307.972L1437.51 307.972Z" fill="black"/>
        <path d="M1458.53 307.972L1458.53 256.239L1468.23 256.239L1468.23 307.972L1458.53 307.972Z" fill="black"/>
        <path d="M1416.49 307.972L1416.49 256.239L1426.19 256.239L1426.19 307.972L1416.49 307.972Z" fill="black"/>
    </g>
    <g clip-path="url(#clip24_0_1)">
        <path d="M1334.04 307.972L1334.04 256.239L1343.74 256.239L1343.74 307.972L1334.04 307.972Z" fill="black"/>
        <path d="M1355.06 307.972L1355.06 256.239L1364.76 256.239L1364.76 307.972L1355.06 307.972Z" fill="black"/>
        <path d="M1313.03 307.972L1313.03 256.239L1322.73 256.239L1322.73 307.972L1313.03 307.972Z" fill="black"/>
    </g>
    <g clip-path="url(#clip25_0_1)">
        <path d="M1486.94 256.239L1486.94 204.507L1495.58 204.507L1495.58 256.239L1486.94 256.239Z" fill="black"/>
        <path d="M1505.66 256.239L1505.66 204.507L1514.3 204.507L1514.3 256.239L1505.66 256.239Z" fill="black"/>
        <path d="M1468.23 256.239L1468.23 204.507L1476.87 204.507L1476.87 256.239L1468.23 256.239Z" fill="black"/>
    </g>
    <g clip-path="url(#clip26_0_1)">
        <path d="M705.982 792.968L705.982 741.235L715.682 741.235L715.682 792.968L705.982 792.968Z" fill="black"/>
        <path d="M726.998 792.968L726.998 741.235L736.698 741.235L736.698 792.968L726.998 792.968Z" fill="black"/>
        <path d="M684.965 792.968L684.965 741.235L694.665 741.235L694.665 792.968L684.965 792.968Z" fill="black"/>
    </g>
    <g clip-path="url(#clip27_0_1)">
        <path d="M748.015 826.109L748.015 792.968L757.715 792.968L757.715 826.109L748.015 826.109Z" fill="black"/>
        <path d="M769.031 826.109L769.031 792.968L778.731 792.968L778.731 826.109L769.031 826.109Z" fill="black"/>
        <path d="M726.998 826.109L726.998 792.968L736.698 792.968L736.698 826.109L726.998 826.109Z" fill="black"/>
    </g>
    <g clip-path="url(#clip28_0_1)">
        <path d="M654.249 741.235L654.249 689.502L663.949 689.502L663.949 741.235L654.249 741.235Z" fill="black"/>
        <path d="M675.266 741.235L675.266 689.502L684.966 689.502L684.966 741.235L675.266 741.235Z" fill="black"/>
        <path d="M633.232 741.235L633.232 689.502L642.932 689.502L642.932 741.235L633.232 741.235Z" fill="black"/>
    </g>
    <g clip-path="url(#clip29_0_1)">
        <path d="M554.017 741.235L554.017 689.502L563.717 689.502L563.717 741.235L554.017 741.235Z" fill="black"/>
        <path d="M575.033 741.235L575.033 689.502L584.733 689.502L584.733 741.235L575.033 741.235Z" fill="black"/>
        <path d="M533 741.235L533 689.502L542.7 689.502L542.7 741.235L533 741.235Z" fill="black"/>
    </g>
    <g clip-path="url(#clip30_0_1)">
        <path d="M736.698 720.219L684.965 720.219L684.965 710.519L736.698 710.519L736.698 720.219Z" fill="black"/>
        <path d="M736.698 699.202L684.965 699.202L684.965 689.502L736.698 689.502L736.698 699.202Z" fill="black"/>
        <path d="M736.698 741.235L684.965 741.235L684.965 731.535L736.698 731.535L736.698 741.235Z" fill="black"/>
    </g>
    <g clip-path="url(#clip31_0_1)">
        <path d="M1364.76 235.223L1313.03 235.223L1313.03 225.523L1364.76 225.523L1364.76 235.223Z" fill="black"/>
        <path d="M1364.76 214.206L1313.03 214.206L1313.03 204.507L1364.76 204.507L1364.76 214.206Z" fill="black"/>
        <path d="M1364.76 256.239L1313.03 256.239L1313.03 246.539L1364.76 246.539L1364.76 256.239Z" fill="black"/>
    </g>
    <g clip-path="url(#clip32_0_1)">
        <path d="M1468.23 235.223L1416.49 235.223L1416.49 225.523L1468.23 225.523L1468.23 235.223Z" fill="black"/>
        <path d="M1468.23 214.206L1416.49 214.206L1416.49 204.507L1468.23 204.507L1468.23 214.206Z" fill="black"/>
        <path d="M1468.23 256.239L1416.49 256.239L1416.49 246.539L1468.23 246.539L1468.23 256.239Z" fill="black"/>
    </g>
    <g clip-path="url(#clip33_0_1)">
        <path d="M1416.49 286.956L1364.76 286.956L1364.76 277.256L1416.49 277.256L1416.49 286.956Z" fill="black"/>
        <path d="M1416.49 265.939L1364.76 265.939L1364.76 256.239L1416.49 256.239L1416.49 265.939Z" fill="black"/>
        <path d="M1416.49 307.972L1364.76 307.972L1364.76 298.272L1416.49 298.272L1416.49 307.972Z" fill="black"/>
    </g>
    <g clip-path="url(#clip34_0_1)">
        <path d="M1514.3 286.956L1468.23 286.956L1468.23 277.256L1514.3 277.256L1514.3 286.956Z" fill="black"/>
        <path d="M1514.3 265.939L1468.23 265.939L1468.23 256.239L1514.3 256.239L1514.3 265.939Z" fill="black"/>
        <path d="M1514.3 307.972L1468.23 307.972L1468.23 298.272L1514.3 298.272L1514.3 307.972Z" fill="black"/>
    </g>
    <g clip-path="url(#clip35_0_1)">
        <path d="M788.431 771.951L736.698 771.951L736.698 762.252L788.431 762.252L788.431 771.951Z" fill="black"/>
        <path d="M788.431 750.935L736.698 750.935L736.698 741.235L788.431 741.235L788.431 750.935Z" fill="black"/>
        <path d="M788.431 792.968L736.698 792.968L736.698 783.268L788.431 783.268L788.431 792.968Z" fill="black"/>
    </g>
    <g clip-path="url(#clip36_0_1)">
        <path d="M633.232 720.219L581.5 720.219L581.5 710.519L633.232 710.519L633.232 720.219Z" fill="black"/>
        <path d="M633.232 699.202L581.5 699.202L581.5 689.502L633.232 689.502L633.232 699.202Z" fill="black"/>
        <path d="M633.232 741.235L581.5 741.235L581.5 731.535L633.232 731.535L633.232 741.235Z" fill="black"/>
    </g>
    <g clip-path="url(#clip37_0_1)">
        <path d="M584.733 769.526L533 769.526L533 759.827L584.733 759.827L584.733 769.526Z" fill="black"/>
        <path d="M584.733 748.51L533 748.51L533 738.81L584.733 738.81L584.733 748.51Z" fill="black"/>
        <path d="M584.733 790.543L533 790.543L533 780.843L584.733 780.843L584.733 790.543Z" fill="black"/>
    </g>
    <path d="M1119.03 585.632C1119.03 563.17 1125.69 541.213 1138.17 522.536C1150.65 503.86 1168.39 489.303 1189.14 480.707C1209.89 472.112 1232.73 469.863 1254.76 474.245C1276.79 478.627 1297.02 489.443 1312.91 505.326C1328.79 521.209 1339.6 541.446 1343.99 563.476C1348.37 585.506 1346.12 608.341 1337.52 629.094C1328.93 649.846 1314.37 667.583 1295.7 680.062C1277.02 692.541 1255.06 699.202 1232.6 699.202L1232.6 585.632H1119.03Z" fill="#9BDBFF"/>
    <rect x="1298.78" y="338.989" width="191.781" height="185.315" stroke="#D3EFFF" stroke-width="20"/>
    <rect x="543" y="596.036" width="387.396" height="67.2992" stroke="#9BDBFF" stroke-width="20"/>
    <path d="M778.124 816.513L923.826 531.993L1069.53 816.513H778.124Z" stroke="#FFA7CD" stroke-width="20"/>
    <path d="M987.279 767.102H1142.48L1064.88 715.369L987.279 767.102Z" fill="#E3006D"/>
    <rect x="543" y="596.036" width="387.396" height="67.2992" stroke="#9BDBFF" stroke-width="20"/>
    <path d="M778.124 816.513L923.826 531.993L1069.53 816.513H778.124Z" stroke="#FFA7CD" stroke-width="20"/>
    <rect x="813" y="1983.98" width="387.396" height="67.2992" stroke="#FFA7CD" stroke-width="20"/>
    <path d="M1048.12 2204.46L1193.83 1919.94L1339.53 2204.46H1048.12Z" stroke="#00A3FF" stroke-width="20"/>
    <g clip-path="url(#clip38_0_1)">
        <path d="M1632.32 522.179C1632.32 529.322 1626.53 535.112 1619.38 535.112C1612.24 535.112 1606.45 529.322 1606.45 522.179C1606.45 515.036 1612.24 509.245 1619.38 509.245C1626.53 509.245 1632.32 515.036 1632.32 522.179Z" fill="#FFA7CD"/>
        <path d="M1632.32 483.379C1632.32 490.522 1626.53 496.312 1619.38 496.312C1612.24 496.312 1606.45 490.522 1606.45 483.379C1606.45 476.236 1612.24 470.446 1619.38 470.446C1626.53 470.446 1632.32 476.236 1632.32 483.379Z" fill="black"/>
        <path d="M1632.32 444.579C1632.32 451.722 1626.53 457.513 1619.38 457.513C1612.24 457.513 1606.45 451.722 1606.45 444.579C1606.45 437.437 1612.24 431.646 1619.38 431.646C1626.53 431.646 1632.32 437.437 1632.32 444.579Z" fill="#FFA7CD"/>
    </g>
    <g clip-path="url(#clip39_0_1)">
        <path d="M1040.62 670.911C1027.68 670.911 1017.18 660.416 1017.18 647.469C1017.18 634.523 1027.68 624.028 1040.62 624.028C1053.57 624.028 1064.06 634.523 1064.06 647.469C1064.06 660.416 1053.57 670.911 1040.62 670.911Z" fill="black"/>
        <path d="M1110.95 670.911C1098 670.911 1087.5 660.416 1087.5 647.469C1087.5 634.523 1098 624.028 1110.95 624.028C1123.89 624.028 1134.39 634.523 1134.39 647.469C1134.39 660.416 1123.89 670.911 1110.95 670.911Z" fill="#FFA7CD"/>
        <path d="M1181.27 670.911C1168.32 670.911 1157.83 660.416 1157.83 647.469C1157.83 634.523 1168.32 624.028 1181.27 624.028C1194.22 624.028 1204.71 634.523 1204.71 647.469C1204.71 660.416 1194.22 670.911 1181.27 670.911Z" fill="black"/>
    </g>
    <path d="M1176.82 180.765H1097.5V95.3825C1097.5 47.5983 1133.63 10 1176.82 10H1256.14V95.3825C1256.14 143.167 1220.02 180.765 1176.82 180.765Z" stroke="#9BDBFF" stroke-width="20"/>
    <path d="M1106.91 463.171C1106.91 520.313 1053.35 566.637 987.279 566.637V501.971C1012.06 501.971 1032.14 484.599 1032.14 463.171C1032.14 441.742 1012.06 424.371 987.279 424.371V359.705C1053.35 359.705 1106.91 406.028 1106.91 463.171Z" fill="#D3EFFF"/>
    <path d="M480.765 783.32V862.64H395.383C347.598 862.64 310 826.519 310 783.32V704H395.383C443.167 704 480.765 740.121 480.765 783.32Z" stroke="#9BDBFF" stroke-width="20"/>
    <path d="M180.765 2281.32V2360.64H95.3827C47.5985 2360.64 10.0002 2324.52 10.0002 2281.32V2202H95.3827C143.167 2202 180.765 2238.12 180.765 2281.32Z" stroke="#9BDBFF" stroke-width="20"/>
    <g clip-path="url(#clip40_0_1)">
        <path d="M1287.24 355.663L1287.24 214.206L1313.76 214.206L1313.76 355.663L1287.24 355.663Z" fill="#FFA7CD"/>
        <path d="M1344.7 355.663L1344.7 214.206L1371.23 214.206L1371.23 355.663L1344.7 355.663Z" fill="#E3006D"/>
        <path d="M1229.77 355.663L1229.77 214.206L1256.29 214.206L1256.29 355.663L1229.77 355.663Z" fill="#E3006D"/>
    </g>
    <path d="M633.637 725.069C689.217 725.069 734.273 770.306 734.273 826.109L533 826.109C533 770.306 578.057 725.069 633.637 725.069Z" fill="#E3006D"/>
    <g clip-path="url(#clip41_0_1)">
        <path d="M757.715 741.235L757.715 689.502L767.415 689.502L767.415 741.235L757.715 741.235Z" fill="black"/>
        <path d="M778.731 741.235L778.731 689.502L788.431 689.502L788.431 741.235L778.731 741.235Z" fill="black"/>
        <path d="M736.698 741.235L736.698 689.502L746.398 689.502L746.398 741.235L736.698 741.235Z" fill="black"/>
    </g>
    <g clip-path="url(#clip42_0_1)">
        <path d="M705.982 792.968L705.982 741.235L715.682 741.235L715.682 792.968L705.982 792.968Z" fill="black"/>
        <path d="M726.998 792.968L726.998 741.235L736.698 741.235L736.698 792.968L726.998 792.968Z" fill="black"/>
        <path d="M684.965 792.968L684.965 741.235L694.665 741.235L694.665 792.968L684.965 792.968Z" fill="black"/>
    </g>
    <g clip-path="url(#clip43_0_1)">
        <path d="M748.015 826.109L748.015 792.968L757.715 792.968L757.715 826.109L748.015 826.109Z" fill="black"/>
        <path d="M769.031 826.109L769.031 792.968L778.731 792.968L778.731 826.109L769.031 826.109Z" fill="black"/>
        <path d="M726.998 826.109L726.998 792.968L736.698 792.968L736.698 826.109L726.998 826.109Z" fill="black"/>
    </g>
    <g clip-path="url(#clip44_0_1)">
        <path d="M654.249 741.235L654.249 689.502L663.949 689.502L663.949 741.235L654.249 741.235Z" fill="black"/>
        <path d="M675.266 741.235L675.266 689.502L684.966 689.502L684.966 741.235L675.266 741.235Z" fill="black"/>
        <path d="M633.232 741.235L633.232 689.502L642.932 689.502L642.932 741.235L633.232 741.235Z" fill="black"/>
    </g>
    <g clip-path="url(#clip45_0_1)">
        <path d="M554.017 741.235L554.017 689.502L563.717 689.502L563.717 741.235L554.017 741.235Z" fill="black"/>
        <path d="M575.033 741.235L575.033 689.502L584.733 689.502L584.733 741.235L575.033 741.235Z" fill="black"/>
        <path d="M533 741.235L533 689.502L542.7 689.502L542.7 741.235L533 741.235Z" fill="black"/>
    </g>
    <g clip-path="url(#clip46_0_1)">
        <path d="M736.698 720.219L684.965 720.219L684.965 710.519L736.698 710.519L736.698 720.219Z" fill="black"/>
        <path d="M736.698 699.202L684.965 699.202L684.965 689.502L736.698 689.502L736.698 699.202Z" fill="black"/>
        <path d="M736.698 741.235L684.965 741.235L684.965 731.535L736.698 731.535L736.698 741.235Z" fill="black"/>
    </g>
    <g clip-path="url(#clip47_0_1)">
        <path d="M788.431 771.951L736.698 771.951L736.698 762.252L788.431 762.252L788.431 771.951Z" fill="black"/>
        <path d="M788.431 750.935L736.698 750.935L736.698 741.235L788.431 741.235L788.431 750.935Z" fill="black"/>
        <path d="M788.431 792.968L736.698 792.968L736.698 783.268L788.431 783.268L788.431 792.968Z" fill="black"/>
    </g>
    <g clip-path="url(#clip48_0_1)">
        <path d="M633.232 720.219L581.5 720.219L581.5 710.519L633.232 710.519L633.232 720.219Z" fill="black"/>
        <path d="M633.232 699.202L581.5 699.202L581.5 689.502L633.232 689.502L633.232 699.202Z" fill="black"/>
        <path d="M633.232 741.235L581.5 741.235L581.5 731.535L633.232 731.535L633.232 741.235Z" fill="black"/>
    </g>
    <g clip-path="url(#clip49_0_1)">
        <path d="M584.733 769.526L533 769.526L533 759.827L584.733 759.827L584.733 769.526Z" fill="black"/>
        <path d="M584.733 748.51L533 748.51L533 738.81L584.733 738.81L584.733 748.51Z" fill="black"/>
        <path d="M584.733 790.543L533 790.543L533 780.843L584.733 780.843L584.733 790.543Z" fill="black"/>
    </g>
    <path d="M633.637 725.069C689.217 725.069 734.273 770.306 734.273 826.109L533 826.109C533 770.306 578.057 725.069 633.637 725.069Z" fill="#E3006D"/>
    <path d="M1613.42 291.806C1613.42 334.497 1578.82 369.105 1536.13 369.105C1493.43 369.105 1458.83 334.497 1458.83 291.806C1458.83 249.115 1493.43 214.507 1536.13 214.507C1578.82 214.507 1613.42 249.115 1613.42 291.806Z" stroke="#00A3FF" stroke-width="20"/>
    <path d="M598.14 508.57C598.14 531.032 591.479 552.989 579 571.666C566.52 590.342 548.783 604.899 528.031 613.495C507.279 622.09 484.444 624.34 462.413 619.957C440.383 615.575 420.147 604.759 404.264 588.876C388.381 572.993 377.564 552.757 373.182 530.726C368.8 508.696 371.049 485.861 379.645 465.109C388.241 444.356 402.797 426.619 421.474 414.14C440.15 401.661 462.108 395 484.57 395L484.57 508.57H598.14Z" fill="#00A3FF"/>
    <path d="M538 454H703L538 292V454Z" fill="black"/>
    <defs>
        <clipPath id="clip0_0_1">
            <rect width="96.1908" height="426.796" fill="white" transform="translate(60 1676.19) rotate(-90)"/>
        </clipPath>
        <clipPath id="clip1_0_1">
            <rect width="103.466" height="103.466" fill="white" transform="translate(623.699 1301.46) rotate(2.88273)"/>
        </clipPath>
        <clipPath id="clip2_0_1">
            <rect width="103.466" height="103.466" fill="white" transform="translate(553.133 1355.73)"/>
        </clipPath>
        <clipPath id="clip3_0_1">
            <rect width="103.466" height="103.466" fill="white" transform="translate(482 1407.47)"/>
        </clipPath>
        <clipPath id="clip4_0_1">
            <rect width="225" height="225" fill="white" transform="translate(1022 1449)"/>
        </clipPath>
        <clipPath id="clip5_0_1">
            <rect width="103.466" height="103.466" fill="white" transform="translate(1484.39 599.778)"/>
        </clipPath>
        <clipPath id="clip6_0_1">
            <rect width="103.466" height="103.466" fill="white" transform="translate(1416.49 651.511)"/>
        </clipPath>
        <clipPath id="clip7_0_1">
            <rect width="103.466" height="103.466" fill="white" transform="translate(1345.36 703.244)"/>
        </clipPath>
        <clipPath id="clip8_0_1">
            <rect width="96.1908" height="426.796" fill="white" transform="translate(1200.67 854.401) rotate(-90)"/>
        </clipPath>
        <clipPath id="clip9_0_1">
            <rect width="96.1908" height="426.796" fill="white" transform="translate(364 2575.19) rotate(-90)"/>
        </clipPath>
        <clipPath id="clip10_0_1">
            <rect width="96" height="253" fill="white" transform="translate(106 518) rotate(-90)"/>
        </clipPath>
        <clipPath id="clip11_0_1">
            <rect width="51.7329" height="51.7329" fill="white" transform="translate(736.698 689.502)"/>
        </clipPath>
        <clipPath id="clip12_0_1">
            <rect width="51.7329" height="51.7329" fill="white" transform="translate(684.965 741.235)"/>
        </clipPath>
        <clipPath id="clip13_0_1">
            <rect width="51.7329" height="33.1414" fill="white" transform="translate(726.998 792.968)"/>
        </clipPath>
        <clipPath id="clip14_0_1">
            <rect width="51.7329" height="51.7329" fill="white" transform="translate(633.232 689.502)"/>
        </clipPath>
        <clipPath id="clip15_0_1">
            <rect width="51.7329" height="51.7329" fill="white" transform="translate(533 689.502)"/>
        </clipPath>
        <clipPath id="clip16_0_1">
            <rect width="51.7329" height="51.7329" fill="white" transform="translate(533 689.502)"/>
        </clipPath>
        <clipPath id="clip17_0_1">
            <rect width="51.7329" height="51.7329" fill="white" transform="translate(684.965 741.235) rotate(-90)"/>
        </clipPath>
        <clipPath id="clip18_0_1">
            <rect width="51.7329" height="51.7329" fill="white" transform="translate(736.698 792.968) rotate(-90)"/>
        </clipPath>
        <clipPath id="clip19_0_1">
            <rect width="51.7329" height="51.7329" fill="white" transform="translate(581.5 741.235) rotate(-90)"/>
        </clipPath>
        <clipPath id="clip20_0_1">
            <rect width="51.7329" height="51.7329" fill="white" transform="translate(533 790.543) rotate(-90)"/>
        </clipPath>
        <clipPath id="clip21_0_1">
            <rect width="51.7329" height="51.7329" fill="white" transform="translate(736.698 689.502)"/>
        </clipPath>
        <clipPath id="clip22_0_1">
            <rect width="51.7329" height="51.7329" fill="white" transform="translate(1364.76 204.507)"/>
        </clipPath>
        <clipPath id="clip23_0_1">
            <rect width="51.7329" height="51.7329" fill="white" transform="translate(1416.49 256.239)"/>
        </clipPath>
        <clipPath id="clip24_0_1">
            <rect width="51.7329" height="51.7329" fill="white" transform="translate(1313.03 256.239)"/>
        </clipPath>
        <clipPath id="clip25_0_1">
            <rect width="46.0746" height="51.7329" fill="white" transform="translate(1468.23 204.507)"/>
        </clipPath>
        <clipPath id="clip26_0_1">
            <rect width="51.7329" height="51.7329" fill="white" transform="translate(684.965 741.235)"/>
        </clipPath>
        <clipPath id="clip27_0_1">
            <rect width="51.7329" height="33.1414" fill="white" transform="translate(726.998 792.968)"/>
        </clipPath>
        <clipPath id="clip28_0_1">
            <rect width="51.7329" height="51.7329" fill="white" transform="translate(633.232 689.502)"/>
        </clipPath>
        <clipPath id="clip29_0_1">
            <rect width="51.7329" height="51.7329" fill="white" transform="translate(533 689.502)"/>
        </clipPath>
        <clipPath id="clip30_0_1">
            <rect width="51.7329" height="51.7329" fill="white" transform="translate(684.965 741.235) rotate(-90)"/>
        </clipPath>
        <clipPath id="clip31_0_1">
            <rect width="51.7329" height="51.7329" fill="white" transform="translate(1313.03 256.239) rotate(-90)"/>
        </clipPath>
        <clipPath id="clip32_0_1">
            <rect width="51.7329" height="51.7329" fill="white" transform="translate(1416.49 256.239) rotate(-90)"/>
        </clipPath>
        <clipPath id="clip33_0_1">
            <rect width="51.7329" height="51.7329" fill="white" transform="translate(1364.76 307.972) rotate(-90)"/>
        </clipPath>
        <clipPath id="clip34_0_1">
            <rect width="51.7329" height="46.0746" fill="white" transform="translate(1468.23 307.972) rotate(-90)"/>
        </clipPath>
        <clipPath id="clip35_0_1">
            <rect width="51.7329" height="51.7329" fill="white" transform="translate(736.698 792.968) rotate(-90)"/>
        </clipPath>
        <clipPath id="clip36_0_1">
            <rect width="51.7329" height="51.7329" fill="white" transform="translate(581.5 741.235) rotate(-90)"/>
        </clipPath>
        <clipPath id="clip37_0_1">
            <rect width="51.7329" height="51.7329" fill="white" transform="translate(533 790.543) rotate(-90)"/>
        </clipPath>
        <clipPath id="clip38_0_1">
            <rect width="103.466" height="103.466" fill="white" transform="translate(1567.65 431.646)"/>
        </clipPath>
        <clipPath id="clip39_0_1">
            <rect width="187.532" height="187.532" fill="white" transform="translate(1204.71 553.703) rotate(90)"/>
        </clipPath>
        <clipPath id="clip40_0_1">
            <rect width="141.457" height="141.457" fill="white" transform="translate(1229.77 214.206)"/>
        </clipPath>
        <clipPath id="clip41_0_1">
            <rect width="51.7329" height="51.7329" fill="white" transform="translate(736.698 689.502)"/>
        </clipPath>
        <clipPath id="clip42_0_1">
            <rect width="51.7329" height="51.7329" fill="white" transform="translate(684.965 741.235)"/>
        </clipPath>
        <clipPath id="clip43_0_1">
            <rect width="51.7329" height="33.1414" fill="white" transform="translate(726.998 792.968)"/>
        </clipPath>
        <clipPath id="clip44_0_1">
            <rect width="51.7329" height="51.7329" fill="white" transform="translate(633.232 689.502)"/>
        </clipPath>
        <clipPath id="clip45_0_1">
            <rect width="51.7329" height="51.7329" fill="white" transform="translate(533 689.502)"/>
        </clipPath>
        <clipPath id="clip46_0_1">
            <rect width="51.7329" height="51.7329" fill="white" transform="translate(684.965 741.235) rotate(-90)"/>
        </clipPath>
        <clipPath id="clip47_0_1">
            <rect width="51.7329" height="51.7329" fill="white" transform="translate(736.698 792.968) rotate(-90)"/>
        </clipPath>
        <clipPath id="clip48_0_1">
            <rect width="51.7329" height="51.7329" fill="white" transform="translate(581.5 741.235) rotate(-90)"/>
        </clipPath>
        <clipPath id="clip49_0_1">
            <rect width="51.7329" height="51.7329" fill="white" transform="translate(533 790.543) rotate(-90)"/>
        </clipPath>
    </defs>
</svg>
