<svg width="1610" height="1876" viewBox="0 0 1610 1876" fill="none" xmlns="http://www.w3.org/2000/svg">
    <g clip-path="url(#clip0_0_1)">
        <path d="M131.441 1635.21C118.495 1635.21 108 1624.71 108 1611.77C108 1598.82 118.495 1588.32 131.441 1588.32C144.388 1588.32 154.883 1598.82 154.883 1611.77C154.883 1624.71 144.388 1635.21 131.441 1635.21Z" fill="black"/>
        <path d="M201.766 1635.21C188.82 1635.21 178.325 1624.71 178.325 1611.77C178.325 1598.82 188.82 1588.32 201.766 1588.32C214.712 1588.32 225.208 1598.82 225.208 1611.77C225.208 1624.71 214.712 1635.21 201.766 1635.21Z" fill="#FFA7CD"/>
        <path d="M272.09 1635.21C259.144 1635.21 248.649 1624.71 248.649 1611.77C248.649 1598.82 259.144 1588.32 272.09 1588.32C285.037 1588.32 295.532 1598.82 295.532 1611.77C295.532 1624.71 285.037 1635.21 272.09 1635.21Z" fill="black"/>
    </g>
    <path d="M745.598 1780.3C745.598 1822.99 710.99 1857.6 668.299 1857.6C625.608 1857.6 591 1822.99 591 1780.3C591 1737.61 625.608 1703 668.299 1703C710.99 1703 745.598 1737.61 745.598 1780.3Z" stroke="#00A3FF" stroke-width="20"/>
    <path d="M1335.64 1780.04C1280.06 1780.04 1235 1734.8 1235 1679L1436.27 1679C1436.27 1734.8 1391.22 1780.04 1335.64 1780.04Z" fill="#E3006D"/>
    <path d="M1335.64 1774.38C1391.22 1774.38 1436.27 1819.62 1436.27 1875.42L1235 1875.42C1235 1819.62 1280.06 1774.38 1335.64 1774.38Z" fill="#E3006D"/>
    <g clip-path="url(#clip1_0_1)">
        <path d="M538.467 1818.46L538.467 1677L564.99 1677L564.99 1818.46L538.467 1818.46Z" fill="#FFA7CD"/>
        <path d="M595.934 1818.46L595.934 1677L622.457 1677L622.457 1818.46L595.934 1818.46Z" fill="#E3006D"/>
        <path d="M481 1818.46L481 1677L507.523 1677L507.523 1818.46L481 1818.46Z" fill="#E3006D"/>
    </g>
    <path d="M1090.78 1749.16C1048.01 1787.05 977.816 1777.68 934 1728.23L982.4 1685.35C998.832 1703.89 1025.15 1707.4 1041.19 1693.19C1057.23 1678.98 1056.91 1652.43 1040.48 1633.88L1088.88 1591C1132.7 1640.45 1133.55 1711.26 1090.78 1749.16Z" fill="#D3EFFF"/>
    <rect x="618" y="1156" width="191.781" height="185.315" stroke="#D3EFFF" stroke-width="20"/>
    <path d="M485 1418.57C485 1396.11 491.661 1374.15 504.14 1355.47C516.619 1336.8 534.356 1322.24 555.109 1313.65C575.861 1305.05 598.696 1302.8 620.726 1307.18C642.757 1311.56 662.993 1322.38 678.876 1338.26C694.759 1354.15 705.575 1374.38 709.957 1396.41C714.34 1418.44 712.09 1441.28 703.495 1462.03C694.899 1482.78 680.342 1500.52 661.666 1513C642.989 1525.48 621.032 1532.14 598.57 1532.14V1418.57H485Z" fill="#9BDBFF"/>
    <g clip-path="url(#clip2_0_1)">
        <path d="M597.625 417.875C597.625 433.408 585.033 446 569.5 446C553.967 446 541.375 433.408 541.375 417.875C541.375 402.342 553.967 389.75 569.5 389.75C585.033 389.75 597.625 402.342 597.625 417.875Z" fill="#FFA7CD"/>
        <path d="M597.625 333.5C597.625 349.033 585.033 361.625 569.5 361.625C553.967 361.625 541.375 349.033 541.375 333.5C541.375 317.967 553.967 305.375 569.5 305.375C585.033 305.375 597.625 317.967 597.625 333.5Z" fill="black"/>
        <path d="M597.625 249.125C597.625 264.658 585.033 277.25 569.5 277.25C553.967 277.25 541.375 264.658 541.375 249.125C541.375 233.592 553.967 221 569.5 221C585.033 221 597.625 233.592 597.625 249.125Z" fill="#FFA7CD"/>
    </g>
    <g clip-path="url(#clip3_0_1)">
        <path d="M1253.84 680.188L968.469 997.55L955.058 985.491L1240.43 668.128L1253.84 680.188Z" fill="#E3006D"/>
        <path d="M1224.78 654.059L939.411 971.422L926 959.363L1211.37 642L1224.78 654.059Z" fill="#9BDBFF"/>
        <path d="M1282.9 706.316L997.527 1023.68L984.116 1011.62L1269.49 694.257L1282.9 706.316Z" fill="#9BDBFF"/>
    </g>
    <g clip-path="url(#clip4_0_1)">
        <path d="M1211 1120.47C1268.14 1120.47 1314.47 1166.79 1314.47 1223.93H1275.67C1275.67 1188.22 1246.71 1159.27 1211 1159.27V1120.47Z" fill="#00A3FF"/>
    </g>
    <g clip-path="url(#clip5_0_1)">
        <path d="M1282.13 1068.73C1339.28 1068.73 1385.6 1115.06 1385.6 1172.2H1346.8C1346.8 1136.48 1317.85 1107.53 1282.13 1107.53V1068.73Z" fill="#D3EFFF"/>
    </g>
    <g clip-path="url(#clip6_0_1)">
        <path d="M1350.03 1017C1407.17 1017 1453.5 1063.32 1453.5 1120.47H1414.7C1414.7 1084.75 1385.75 1055.8 1350.03 1055.8V1017Z" fill="#00A3FF"/>
    </g>
    <path d="M492.14 667.57C492.14 690.032 485.479 711.989 473 730.666C460.52 749.342 442.783 763.899 422.031 772.495C401.279 781.09 378.444 783.34 356.413 778.957C334.383 774.575 314.147 763.759 298.264 747.876C282.381 731.993 271.564 711.757 267.182 689.726C262.8 667.696 265.049 644.861 273.645 624.109C282.241 603.356 296.797 585.619 315.474 573.14C334.15 560.661 356.108 554 378.57 554V667.57H492.14Z" fill="#00A3FF"/>
    <path d="M289.383 863C337.167 863 374.765 899.121 374.765 942.32V1021.64H289.383C241.598 1021.64 204 985.519 204 942.32V863H289.383Z" stroke="#9BDBFF" stroke-width="20"/>
    <g clip-path="url(#clip7_0_1)">
        <path d="M253 638L0 638L-2.07356e-06 620L253 620L253 638Z" fill="#E3006D"/>
        <path d="M253 599L0 599L-2.07356e-06 581L253 581L253 599Z" fill="#FFA7CD"/>
        <path d="M253 677L0 677L-2.07356e-06 659L253 659L253 677Z" fill="#FFA7CD"/>
    </g>
    <path d="M206.637 796.041C151.057 796.041 106 750.803 106 695L307.273 695C307.273 750.803 262.217 796.041 206.637 796.041Z" fill="#E3006D"/>
    <path d="M206.637 794C262.217 794 307.273 839.237 307.273 895.041L106 895.041C106 839.237 151.057 794 206.637 794Z" fill="#E3006D"/>
    <path d="M1014 252C1079.17 252 1132 304.83 1132 370L896 370C896 304.83 948.83 252 1014 252Z" fill="#E3006D"/>
    <g clip-path="url(#clip8_0_1)">
        <path d="M957 303.625L896 303.625L896 292.375L957 292.375L957 303.625Z" fill="black"/>
        <path d="M957 279.25L896 279.25L896 268L957 268L957 279.25Z" fill="black"/>
        <path d="M957 328L896 328L896 316.75L957 316.75L957 328Z" fill="black"/>
    </g>
    <g clip-path="url(#clip9_0_1)">
        <path d="M1013 246.219L953 246.219L953 234.781L1013 234.781L1013 246.219Z" fill="black"/>
        <path d="M1013 221.438L953 221.438L953 210L1013 210L1013 221.438Z" fill="black"/>
        <path d="M1013 271L953 271L953 259.563L1013 259.562L1013 271Z" fill="black"/>
    </g>
    <g clip-path="url(#clip10_0_1)">
        <path d="M1195 306.625L1134 306.625L1134 295.375L1195 295.375L1195 306.625Z" fill="black"/>
        <path d="M1195 282.25L1134 282.25L1134 271L1195 271L1195 282.25Z" fill="black"/>
        <path d="M1195 331L1134 331L1134 319.75L1195 319.75L1195 331Z" fill="black"/>
    </g>
    <g clip-path="url(#clip11_0_1)">
        <path d="M1134 246.219L1074 246.219L1074 234.781L1134 234.781L1134 246.219Z" fill="black"/>
        <path d="M1134 221.438L1074 221.438L1074 210L1134 210L1134 221.438Z" fill="black"/>
        <path d="M1134 271L1074 271L1074 259.563L1134 259.562L1134 271Z" fill="black"/>
    </g>
    <g clip-path="url(#clip12_0_1)">
        <path d="M920.781 271L920.781 210L932.219 210L932.219 271L920.781 271Z" fill="black"/>
        <path d="M945.562 271L945.562 210L957 210L957 271L945.562 271Z" fill="black"/>
        <path d="M896 271L896 210L907.437 210L907.438 271L896 271Z" fill="black"/>
    </g>
    <g clip-path="url(#clip13_0_1)">
        <path d="M1037.78 271L1037.78 210L1049.22 210L1049.22 271L1037.78 271Z" fill="black"/>
        <path d="M1062.56 271L1062.56 210L1074 210L1074 271L1062.56 271Z" fill="black"/>
        <path d="M1013 271L1013 210L1024.44 210L1024.44 271L1013 271Z" fill="black"/>
    </g>
    <g clip-path="url(#clip14_0_1)">
        <path d="M1147.78 370L1147.78 331L1159.22 331L1159.22 370L1147.78 370Z" fill="black"/>
        <path d="M1172.56 370L1172.56 331L1184 331L1184 370L1172.56 370Z" fill="black"/>
        <path d="M1123 370L1123 331L1134.44 331L1134.44 370L1123 370Z" fill="black"/>
    </g>
    <g clip-path="url(#clip15_0_1)">
        <path d="M1098.38 331L1098.37 271L1109.62 271L1109.62 331L1098.38 331Z" fill="black"/>
        <path d="M1122.75 331L1122.75 271L1134 271L1134 331L1122.75 331Z" fill="black"/>
        <path d="M1074 331L1074 271L1085.25 271L1085.25 331L1074 331Z" fill="black"/>
    </g>
    <g clip-path="url(#clip16_0_1)">
        <path d="M1158.78 271L1158.78 210L1170.22 210L1170.22 271L1158.78 271Z" fill="black"/>
        <path d="M1183.56 271L1183.56 210L1195 210L1195 271L1183.56 271Z" fill="black"/>
        <path d="M1134 271L1134 210L1145.44 210L1145.44 271L1134 271Z" fill="black"/>
    </g>
    <path d="M1179.78 360.5L1353.5 21.9062L1527.22 360.5H1179.78Z" stroke="#FFA7CD" stroke-width="20"/>
    <rect x="906" y="99" width="457" height="82" stroke="#9BDBFF" stroke-width="20"/>
    <path d="M1428 301H1610L1519 240L1428 301Z" fill="#E3006D"/>
    <defs>
        <clipPath id="clip0_0_1">
            <rect width="187.532" height="187.532" fill="white" transform="translate(295.532 1518) rotate(90)"/>
        </clipPath>
        <clipPath id="clip1_0_1">
            <rect width="141.457" height="141.457" fill="white" transform="translate(481 1677)"/>
        </clipPath>
        <clipPath id="clip2_0_1">
            <rect width="225" height="225" fill="white" transform="translate(457 221)"/>
        </clipPath>
        <clipPath id="clip3_0_1">
            <rect width="96.1908" height="426.796" fill="white" transform="translate(997.527 1023.68) rotate(-138.038)"/>
        </clipPath>
        <clipPath id="clip4_0_1">
            <rect width="103.466" height="103.466" fill="white" transform="translate(1211 1120.47)"/>
        </clipPath>
        <clipPath id="clip5_0_1">
            <rect width="103.466" height="103.466" fill="white" transform="translate(1282.13 1068.73)"/>
        </clipPath>
        <clipPath id="clip6_0_1">
            <rect width="103.466" height="103.466" fill="white" transform="translate(1350.03 1017)"/>
        </clipPath>
        <clipPath id="clip7_0_1">
            <rect width="96" height="253" fill="white" transform="translate(0 677) rotate(-90)"/>
        </clipPath>
        <clipPath id="clip8_0_1">
            <rect width="60" height="61" fill="white" transform="translate(896 328) rotate(-90)"/>
        </clipPath>
        <clipPath id="clip9_0_1">
            <rect width="61" height="60" fill="white" transform="translate(953 271) rotate(-90)"/>
        </clipPath>
        <clipPath id="clip10_0_1">
            <rect width="60" height="61" fill="white" transform="translate(1134 331) rotate(-90)"/>
        </clipPath>
        <clipPath id="clip11_0_1">
            <rect width="61" height="60" fill="white" transform="translate(1074 271) rotate(-90)"/>
        </clipPath>
        <clipPath id="clip12_0_1">
            <rect width="61" height="61" fill="white" transform="translate(896 210)"/>
        </clipPath>
        <clipPath id="clip13_0_1">
            <rect width="61" height="61" fill="white" transform="translate(1013 210)"/>
        </clipPath>
        <clipPath id="clip14_0_1">
            <rect width="61" height="39" fill="white" transform="translate(1123 331)"/>
        </clipPath>
        <clipPath id="clip15_0_1">
            <rect width="60" height="60" fill="white" transform="translate(1074 271)"/>
        </clipPath>
        <clipPath id="clip16_0_1">
            <rect width="61" height="61" fill="white" transform="translate(1134 210)"/>
        </clipPath>
    </defs>
</svg>
